<svg width="57" height="57" viewBox="0 0 57 57" fill="none" xmlns="http://www.w3.org/2000/svg">
<g clip-path="url(#clip0_6001_2)">
<path d="M28.5 0V16.2881L14.25 24.431L0 16.2869L28.5 0Z" fill="#431F5A"/>
<path d="M14.2525 24.4302L28.5025 32.5731V48.8588L14.2525 40.7159L0.00247192 32.5731V16.2861L14.2525 24.4302Z" fill="#722ED1"/>
<path d="M42.7513 40.7154V56.9999L28.5013 48.8582V32.5725L42.7513 40.7154Z" fill="#722ED1"/>
<path d="M28.5 0V16.2857L42.75 24.4274L57 32.5691V16.2869L28.5 0Z" fill="#722ED1"/>
<path d="M56.9988 16.2861V32.5742L42.7488 40.7171L28.4988 32.5731L42.7488 24.429L56.9988 16.2861Z" fill="#431F5A"/>
<path d="M42.7513 40.7154L28.5013 48.8582V32.5725L42.7513 40.7154Z" fill="#431F5A"/>
</g>
<defs>
<clipPath id="clip0_6001_2">
<rect width="57" height="57" fill="white"/>
</clipPath>
</defs>
</svg>
