<svg width="72" height="72" viewBox="0 0 72 72" fill="none" xmlns="http://www.w3.org/2000/svg">
<g clip-path="url(#clip0_6001_2)">
<path d="M36 0V20.5745L18 30.8602L0 20.573L36 0Z" fill="#431F5A"/>
<path d="M18.003 30.859L36.003 41.1447V61.7162L18.003 51.4305L0.00302124 41.1447V20.5718L18.003 30.859Z" fill="#722ED1"/>
<path d="M54.0017 51.43V71.9999L36.0017 61.7157V41.1443L54.0017 51.43Z" fill="#722ED1"/>
<path d="M36 0V20.5714L54 30.8557L72 41.1399V20.573L36 0Z" fill="#722ED1"/>
<path d="M71.9985 20.5718V41.1462L53.9985 51.432L35.9985 41.1447L53.9985 30.8575L71.9985 20.5718Z" fill="#431F5A"/>
<path d="M54.0017 51.43L36.0017 61.7157V41.1443L54.0017 51.43Z" fill="#431F5A"/>
</g>
<defs>
<clipPath id="clip0_6001_2">
<rect width="72" height="72" fill="white"/>
</clipPath>
</defs>
</svg>
