<svg width="114" height="114" viewBox="0 0 114 114" fill="none" xmlns="http://www.w3.org/2000/svg">
<g clip-path="url(#clip0_6001_2)">
<path d="M57 0V32.5762L28.5 48.8619L0 32.5738L57 0Z" fill="#431F5A"/>
<path d="M28.5048 48.8601L57.0048 65.1459V97.7173L28.5048 81.4316L0.00479126 65.1459V32.572L28.5048 48.8601Z" fill="#722ED1"/>
<path d="M85.5027 81.4307V114L57.0027 97.7165V65.145L85.5027 81.4307Z" fill="#722ED1"/>
<path d="M57 0V32.5714L85.5 48.8548L114 65.1382V32.5738L57 0Z" fill="#722ED1"/>
<path d="M113.998 32.572V65.1482L85.4977 81.434L56.9977 65.1459L85.4977 48.8577L113.998 32.572Z" fill="#431F5A"/>
<path d="M85.5027 81.4307L57.0027 97.7165V65.145L85.5027 81.4307Z" fill="#431F5A"/>
</g>
<defs>
<clipPath id="clip0_6001_2">
<rect width="114" height="114" fill="white"/>
</clipPath>
</defs>
</svg>
